<svg id="Capa_1" data-name="Capa 1" xmlns="http://www.w3.org/2000/svg" viewBox="0 0 600 600"><defs><style>.cls-1{font-size:68.21px;fill:#fff;font-family:Gotham-Book, Gotham;}.cls-2{fill:#fefefe;}</style></defs><title>logo appetit - header</title><text class="cls-1" transform="translate(150.19 289.03)">Appétit</text><path d="M450.65,281.92a2.81,2.81,0,0,1-.63.82l-4.37,4.37a1.16,1.16,0,0,1-1.86,0c-2-2-4.07-4.06-6.09-6.11-.25-.26-.37-.21-.59,0-.91.93-1.84,1.85-2.77,2.77a1.15,1.15,0,0,1-2.06-.49q-3.13-9.37-6.25-18.76c-.3-.89,0-1.57.83-1.71a1.5,1.5,0,0,1,.63.08l18.93,6.31a1.14,1.14,0,0,1,.46,2c-.95,1-1.91,1.92-2.88,2.87-.17.17-.16.26,0,.43l6.05,6a2.72,2.72,0,0,1,.59.8Z"/><path d="M427.07,249a1.42,1.42,0,0,1,.84,1.5c0,2.12,0,4.24,0,6.36a1.13,1.13,0,0,1-2.23.29,2.12,2.12,0,0,1,0-.44c0-2.07,0-4.14,0-6.21a1.42,1.42,0,0,1,.84-1.5Z"/><path d="M423.1,268.56a1.15,1.15,0,0,1-.36.77L418,274.06a1.13,1.13,0,1,1-1.6-1.6l4.73-4.73a1.13,1.13,0,0,1,2,.83Z"/><path d="M423.1,258.91a1,1,0,0,1-.62,1,1.08,1.08,0,0,1-1.17-.09,2.73,2.73,0,0,1-.25-.23c-1.53-1.52-3.05-3.05-4.57-4.57a1.14,1.14,0,1,1,1.6-1.6l4.6,4.6A1.19,1.19,0,0,1,423.1,258.91Z"/><path d="M437.48,254.11a1.15,1.15,0,0,1-.37.84l-4.7,4.7a1.13,1.13,0,1,1-1.59-1.6q2.34-2.35,4.68-4.68a1.12,1.12,0,0,1,1.31-.29A1.1,1.1,0,0,1,437.48,254.11Z"/><path d="M416.61,264.82h-3.28a1.13,1.13,0,1,1,0-2.25h6.51a1.13,1.13,0,1,1,0,2.25Z"/><path class="cls-2" d="M433.9,281l-5.06-15.18c.13-.08.21,0,.3,0l14.66,4.88c.27.09.27.16.07.35-.75.73-1.49,1.49-2.23,2.23s-.77,1.3,0,2.07l6,6c.2.19.23.3,0,.51-.91.88-1.81,1.78-2.69,2.69-.23.24-.34.2-.54,0l-6.1-6.1a1.16,1.16,0,0,0-1.88,0l-2.27,2.26A2.86,2.86,0,0,1,433.9,281Z"/></svg>