<svg id="Capa_1" data-name="Capa 1" xmlns="http://www.w3.org/2000/svg" viewBox="0 0 600 600"><defs><style>.cls-1{fill:#36312b;}.cls-2,.cls-3,.cls-5{fill:#fff;}.cls-2{stroke:#ff8c00;stroke-miterlimit:10;stroke-width:2.64px;}.cls-4{fill:#ff8c00;}.cls-5{font-size:82.3px;font-family:Gotham-Book, Gotham;}.cls-6{fill:#fefefe;}</style></defs><title>logo Appetit - gradients</title><path class="cls-1" d="M347.36,266.78c-20.44-12-34.29-10-40-1.73-5.74-8.28-19.58-10.3-40,1.73-18.86,11.1-47.14-9.66-42.44-3.87,32.59,40.26,72.31,26.67,82.47,14,10.17,12.62,49.88,26.21,82.48-14C394.5,257.12,366.23,277.88,347.36,266.78Z"/><path class="cls-2" d="M426.23,169.36c0,50.64-66.81,69.42-93.22,26.16a71.39,71.39,0,0,1-49.56,3.7c-24,46.72-95,29.66-95-23a50.29,50.29,0,0,1,60.85-49.16c.39.08.78.16,1.17.26A51.77,51.77,0,0,1,253.7,123c21-25.24,63.84-28.6,90.16-8.62a55.12,55.12,0,0,1,10,9.79c.55-.28,1.11-.54,1.66-.79C388.25,108.78,426.23,132.57,426.23,169.36Z"/><path class="cls-2" d="M364.51,249.09c-36.3-22.66-78.15-22.66-114.44,0-2.26,1.41-4.72-1.11-4.72-4.83,0-34.54-.69-35.44,2-37.25,58.31-38.49,121.84-6,121.84,4.8C369.23,239.41,370.76,253,364.51,249.09Z"/><path class="cls-3" d="M393.12,176.25c0,21.69-27.05,39.27-60.43,39.27s-60.43-17.58-60.43-39.27"/><path class="cls-4" d="M393.12,176.25a26.43,26.43,0,0,1-1.33,9.87A32.85,32.85,0,0,1,387,195a48.65,48.65,0,0,1-15.4,13c-11.87,6.6-25.5,9.39-38.94,9.47a91,91,0,0,1-20.06-2.28,72.73,72.73,0,0,1-18.88-7.19,48.65,48.65,0,0,1-15.4-13,32.85,32.85,0,0,1-4.76-8.91,26.43,26.43,0,0,1-1.33-9.87,28.55,28.55,0,0,0,2.36,9.47,33,33,0,0,0,5.26,8.08,49.56,49.56,0,0,0,15.34,11.5,75.06,75.06,0,0,0,18.24,6.24,94.61,94.61,0,0,0,38.46,0,75.3,75.3,0,0,0,18.25-6.25,49.67,49.67,0,0,0,15.34-11.5,32.35,32.35,0,0,0,5.25-8.08A28.55,28.55,0,0,0,393.12,176.25Z"/><path class="cls-4" d="M251,157.44c-4.11-8.45-4.52-19.2-1.74-30.34.39.08.78.16,1.17.26A51.77,51.77,0,0,1,253.7,123C249,134,247.59,145.85,251,157.44Z"/><path class="cls-4" d="M396.08,141.86c-25.42,3.29-42.55-9.15-52.22-27.47a55.12,55.12,0,0,1,10,9.79c.55-.28,1.11-.54,1.66-.79C364.75,134.42,378.08,141.69,396.08,141.86Z"/><path class="cls-4" d="M246.25,208.08c-.47.72-.73,1.83-.86,4.09-15.24-7.91-20.11-18.26-21-35.91C227.79,192.27,231.74,201.33,246.25,208.08Z"/><text class="cls-5" transform="translate(126.56 375.32)">Appétit</text><path d="M481.54,373.65a3.08,3.08,0,0,1-1-.71c-2.42-2.43-4.84-4.84-7.25-7.27-.24-.24-.35-.24-.59,0-1.13,1.16-2.28,2.3-3.43,3.44a1.38,1.38,0,0,1-2.45-.56l-7.59-22.81a1.36,1.36,0,0,1,1.07-1.94,1.6,1.6,0,0,1,.75.11l22.8,7.59a1.38,1.38,0,0,1,.58,2.45c-1.13,1.14-2.26,2.28-3.41,3.4-.25.25-.29.37,0,.65,2.46,2.44,4.91,4.9,7.36,7.35a1.41,1.41,0,0,1,0,2.31l-5.26,5.27a3.72,3.72,0,0,1-1,.72Z"/><path d="M442.46,344.48a1.73,1.73,0,0,1,1.82-1c2.51,0,5,0,7.53,0a1.39,1.39,0,0,1,1.56,1.34,1.4,1.4,0,0,1-1.56,1.39c-2.51,0-5,0-7.53,0a1.76,1.76,0,0,1-1.82-1Z"/><path d="M454.27,349.27a1.33,1.33,0,0,1,1.35.77,1.29,1.29,0,0,1-.2,1.48c-.27.31-.57.59-.86.88l-4.87,4.88a1.4,1.4,0,0,1-1.49.42,1.35,1.35,0,0,1-.52-2.27c.58-.61,1.19-1.2,1.79-1.8,1.28-1.28,2.57-2.56,3.85-3.85A1.46,1.46,0,0,1,454.27,349.27Z"/><path d="M455.75,339.05a1.27,1.27,0,0,1-.77,1.23,1.29,1.29,0,0,1-1.48-.21c-.4-.36-.78-.76-1.16-1.14l-4.62-4.62a1.36,1.36,0,0,1,.42-2.3,1.27,1.27,0,0,1,1.43.3c1.94,1.92,3.87,3.86,5.81,5.8A1.24,1.24,0,0,1,455.75,339.05Z"/><path d="M473.1,333.25a1.33,1.33,0,0,1-.41,1L467,340a1.36,1.36,0,1,1-1.92-1.93c1.9-1.91,3.81-3.81,5.71-5.71a1.33,1.33,0,0,1,1.55-.3A1.26,1.26,0,0,1,473.1,333.25Z"/><path d="M458.82,332.53v-3.91a1.37,1.37,0,1,1,2.73,0v7.95a1.37,1.37,0,1,1-2.73,0Z"/><path class="cls-6" d="M462.69,347.32l3.09,1,14.89,4.95c.32.11.45.16.13.47-1,.92-1.89,1.87-2.83,2.82a1.38,1.38,0,0,0,0,2.18c2.47,2.47,4.94,5,7.42,7.41.27.26.27.39,0,.66q-1.65,1.59-3.24,3.24c-.24.24-.35.25-.6,0q-3.68-3.7-7.38-7.39a1.41,1.41,0,0,0-2.31,0l-2.79,2.8c-.19.2-.28.26-.39-.07q-3-8.94-5.95-17.87A2.24,2.24,0,0,1,462.69,347.32Z"/></svg>